<svg width="62" height="35" viewBox="0 0 62 35" fill="none" xmlns="http://www.w3.org/2000/svg">
<rect x="0.5" y="0.5" width="61" height="34" rx="4.5" fill="#F6D300" stroke="#EEEEEE"/>
<g clip-path="url(#clip0_1045_4451)">
<path d="M1 20.3999H8.27526L7.85714 20.9599H1V20.3999Z" fill="#D40511"/>
<path d="M60.9999 20.9599H52.094L52.5539 20.3999H61.0417V20.9599H60.9999Z" fill="#D40511"/>
<path d="M1 19.36H9.1115L8.65157 19.92H1L1 19.36Z" fill="#D40511"/>
<path d="M1 18.3199H9.94773L9.4878 18.8799H1L1 18.3199Z" fill="#D40511"/>
<path d="M61.0001 19.92H52.9304L53.3904 19.36H61.0419V19.92H61.0001Z" fill="#D40511"/>
<path d="M54.1848 18.3199H61.0001V18.8799H53.7249L54.1848 18.3199Z" fill="#D40511"/>
<path d="M8.8606 20.9599L12.7073 16.0399H17.4738C18.0174 16.0399 18.0174 16.2399 17.7247 16.5599C17.4738 16.8799 17.0139 17.4799 16.763 17.7999C16.6376 17.9999 16.3867 18.2799 17.1812 18.2799H23.5784C23.0766 18.9999 21.3205 20.9999 18.2265 20.9999C15.7177 20.9599 8.8606 20.9599 8.8606 20.9599Z" fill="#D40511"/>
<path d="M30.8956 18.3199L28.805 20.9999H23.3276L25.4182 18.3199H30.8956Z" fill="#D40511"/>
<path d="M38.8815 18.3199L36.7909 20.9999H31.2717L33.3623 18.3199H38.8815Z" fill="#D40511"/>
<path d="M40.6795 18.3199C40.6795 18.3199 40.2614 18.8399 40.0941 19.0799C39.3833 19.9599 40.0105 20.9999 42.2683 20.9999H51.1324L53.223 18.3199H40.6795Z" fill="#D40511"/>
<path d="M11.5784 13L9.65503 15.44H20.108C20.6515 15.44 20.6515 15.64 20.3589 15.96C20.108 16.28 19.6481 16.88 19.3972 17.2C19.2718 17.36 19.0209 17.68 19.8153 17.68H24.0801C24.0801 17.68 24.7909 16.8 25.3345 16.04C26.1289 15.04 25.4181 12.96 22.6167 12.96C20.108 13 11.5784 13 11.5784 13Z" fill="#D40511"/>
<path d="M39.3413 17.68H25.8779L29.5574 13H35.0765L32.9859 15.68H35.4528L37.5434 13H43.0626L39.3413 17.68Z" fill="#D40511"/>
<path d="M50.6725 13L46.9931 17.68H41.1394L44.8188 13H50.6725Z" fill="#D40511"/>
</g>
<defs>
<clipPath id="clip0_1045_4451">
<rect width="60" height="8" fill="white" transform="translate(1 13)"/>
</clipPath>
</defs>
</svg>
